<svg className=""   clip="mask" viewBox="0 0 1 1" fill="none" xmlns="http://www.w3.org/2000/svg">
    <title>Ribbon End</title>
    <path
    d="M0.00124689 0H1V0.665217V0.88913V0.890217C1 0.950849 0.943617 1 0.874065 1C0.804513 1 0.74813 0.950849 0.74813 0.890217V0.890761C0.74813 0.951092 0.692026 1 0.622818 1C0.559929 1 0.50786 0.959615 0.498877 0.906971C0.490714 0.959506 0.439061 1 0.376559 1C0.311952 1 0.258938 0.956733 0.253565 0.901625C0.246444 0.956975 0.192577 1 0.127182 1C0.0569414 1 0 0.950362 0 0.88913V0.666304C0 0.661014 0.00042501 0.655811 0.00124689 0.650718V0Z"
    fill="black"
    />
</svg>
